<svg width="32" height="32" viewBox="0 0 32 32" fill="none" xmlns="http://www.w3.org/2000/svg">
<g clip-path="url(#clip0_2143_501)">
<path d="M24.1691 9.13175H22.463V7.46229C22.463 5.86201 21.1611 4.56006 19.5608 4.56006H12.4392C10.8389 4.56006 9.53695 5.86201 9.53695 7.46229V9.13175H7.83086C5.71849 9.13175 4 10.8502 4 12.9625V23.609C4 25.7214 5.71849 27.4399 7.83086 27.4399H24.1692C26.2816 27.4399 28.0001 25.7214 28.0001 23.609V12.9625C28 10.8502 26.2815 9.13175 24.1691 9.13175ZM10.7697 7.46229C10.7697 6.54175 11.5186 5.79284 12.4392 5.79284H19.5608C20.4814 5.79284 21.2303 6.54175 21.2303 7.46229V9.13175H10.7697V7.46229ZM26.7672 23.609C26.7672 25.0416 25.6017 26.2071 24.1691 26.2071H7.83086C6.3983 26.2071 5.23278 25.0416 5.23278 23.609V12.9625C5.23278 11.53 6.3983 10.3645 7.83086 10.3645H24.1692C25.6018 10.3645 26.7673 11.53 26.7673 12.9625L26.7672 23.609Z" fill="#64748B"/>
<path d="M14.8171 22.7708C15.2581 22.8843 15.7117 22.9419 16.1671 22.9421C17.4313 23.0017 18.6485 22.4562 19.4452 21.4728C20.0386 20.6435 20.244 19.5979 20.0086 18.6056C19.8489 17.9631 19.5773 17.3538 19.2061 16.8056C18.8311 16.2762 18.3946 15.7932 17.9058 15.3667L17.7357 15.2066C17.4948 14.9935 17.3433 14.6973 17.3114 14.3773C17.3056 14.3218 17.3021 14.2645 17.3003 14.2084L17.2699 12.9934C17.2639 12.7582 17.1175 12.5497 16.8984 12.4641C16.6794 12.3785 16.4303 12.4325 16.2665 12.6012L15.4389 13.4556C15.3559 13.541 15.2712 13.6245 15.1736 13.7204C14.9383 13.9433 14.7175 14.1811 14.5126 14.4322C13.9432 15.0462 13.7232 15.9066 13.9282 16.7185C13.9994 16.9381 14.0988 17.1475 14.2239 17.3415C14.3056 17.4601 14.3679 17.5909 14.4086 17.729C14.4244 17.8055 14.401 17.8295 14.3905 17.8406C14.3577 17.8733 14.304 17.8915 14.19 17.8885C14.0859 17.8584 13.9936 17.7973 13.9253 17.7132L13.3145 17.0195C13.1723 16.8579 12.9528 16.7876 12.7432 16.8365C12.5336 16.8853 12.3678 17.0455 12.3116 17.2533L12.0662 18.1597C11.7238 19.3044 11.9526 20.5439 12.681 21.4909C13.246 22.1253 13.9913 22.5719 14.8171 22.7708ZM13.1626 18.6039C13.3738 18.8094 13.6361 18.9547 13.9223 19.0247C14.3921 19.1328 14.8845 18.9935 15.2279 18.6553C15.5242 18.3482 15.6471 17.9131 15.5552 17.4964C15.4914 17.2271 15.3804 16.9713 15.2274 16.7407C15.1557 16.6309 15.0969 16.5132 15.052 16.3901C14.9652 15.9407 15.1076 15.4775 15.4319 15.1546C15.6069 14.9428 15.7948 14.7422 15.9947 14.5538L16.1414 14.4088C16.1414 14.4404 16.1467 14.4714 16.1496 14.5024C16.2115 15.0989 16.4904 15.652 16.9333 16.0563L17.1086 16.2212C17.5306 16.5857 17.908 16.9989 18.2331 17.452C18.5278 17.8853 18.7439 18.3672 18.8713 18.8756C19.0296 19.5333 18.896 20.2273 18.5048 20.7791C17.926 21.4606 17.0595 21.8289 16.1671 21.7726C15.8123 21.7726 15.4588 21.7279 15.1152 21.6394C14.5233 21.501 13.9874 21.1863 13.5781 20.737C13.1212 20.1267 12.9681 19.3411 13.1626 18.6039Z" fill="#64748B"/>
</g>
<defs>
<clipPath id="clip0_2143_501">
<rect width="24" height="24" fill="white" transform="translate(4 4)"/>
</clipPath>
</defs>
</svg>
