<svg width="32" height="32" viewBox="0 0 32 32" fill="none" xmlns="http://www.w3.org/2000/svg">
<path d="M24.9789 16.0167C24.9479 15.8884 24.885 15.7696 24.7958 15.6708C24.7067 15.5721 24.5939 15.4964 24.4676 15.4505L18.5772 13.2888L20.0761 5.95331C20.1101 5.78288 20.0864 5.60626 20.0088 5.45012C19.9311 5.29399 19.8036 5.1668 19.6456 5.08774C19.4876 5.00869 19.3076 4.98207 19.1327 5.01189C18.9579 5.04172 18.7977 5.12637 18.6763 5.25308L7.22466 17.2571C7.13165 17.353 7.06436 17.4699 7.02882 17.5974C6.99327 17.725 6.99057 17.8591 7.02095 17.9879C7.05133 18.1167 7.11385 18.2362 7.20292 18.3356C7.292 18.4349 7.40485 18.5112 7.5314 18.5575L13.4239 20.7192L11.9291 28.0467C11.8951 28.2171 11.9188 28.3937 11.9964 28.5499C12.0741 28.706 12.2015 28.8332 12.3595 28.9123C12.5176 28.9913 12.6976 29.0179 12.8724 28.9881C13.0473 28.9583 13.2075 28.8736 13.3288 28.7469L24.7805 16.7429C24.8718 16.647 24.9377 16.5306 24.9723 16.404C25.0069 16.2774 25.0091 16.1444 24.9789 16.0167ZM14.0977 25.6029L15.1682 20.3631C15.2066 20.1773 15.1762 19.9842 15.0826 19.8182C14.9889 19.6522 14.8381 19.5242 14.657 19.4568L9.25427 17.4712L17.9064 8.40213L16.8369 13.6419C16.7986 13.8277 16.829 14.0208 16.9226 14.1868C17.0162 14.3528 17.167 14.4808 17.3482 14.5482L22.7468 16.5288L14.0977 25.6029Z" fill="#E05409"/>
</svg>
