<svg width="32" height="32" viewBox="0 0 32 32" fill="none" xmlns="http://www.w3.org/2000/svg">
<path fill-rule="evenodd" clip-rule="evenodd" d="M4 9.57532C4 7.84661 5.40139 6.44444 7.13279 6.44444C8.08759 6.44444 8.8884 6.44444 8.8884 6.44444V4H15V6.44444H17.4464C22.1698 6.44444 26 10.2734 26 14.9961C26 17.7964 26 20.7336 26 22.8691C26 23.6983 25.67 24.4962 25.0826 25.0828C24.4952 25.6695 23.6988 26 22.8672 26C18.685 26 11.315 26 7.13279 26C6.30119 26 5.50481 25.6695 4.91741 25.0828C4.33001 24.4962 4 23.6983 4 22.8691C4 19.22 4 13.2244 4 9.57532Z" stroke="#64748B" stroke-width="1.99131" stroke-miterlimit="1.5" stroke-linecap="round" stroke-linejoin="round"/>
<path fill-rule="evenodd" clip-rule="evenodd" d="M14.9992 11C14.9992 11 18.9996 14.7956 19 17.196C19.0004 19.2954 17.2076 21 15 21C12.7924 21 11.016 19.2954 11 17.196C11.0131 14.7943 14.9992 11 14.9992 11Z" stroke="#64748B" stroke-width="1.99991" stroke-miterlimit="1.5" stroke-linecap="round" stroke-linejoin="round"/>
</svg>
